<?xml version="1.0" encoding="UTF-8" standalone="no"?>
<!-- Created with Inkscape (http://www.inkscape.org/) -->

<svg
   xmlns:dc="http://purl.org/dc/elements/1.1/"
   xmlns:cc="http://creativecommons.org/ns#"
   xmlns:rdf="http://www.w3.org/1999/02/22-rdf-syntax-ns#"
   xmlns:svg="http://www.w3.org/2000/svg"
   xmlns="http://www.w3.org/2000/svg"
   xmlns:sodipodi="http://sodipodi.sourceforge.net/DTD/sodipodi-0.dtd"
   xmlns:inkscape="http://www.inkscape.org/namespaces/inkscape"
   width="230.75"
   height="17.29998"
   viewBox="0 0 61.052604 4.5772863"
   version="1.1"
   id="svg8"
   inkscape:version="0.92.0 r15299"
   sodipodi:docname="american eagle.svg">
  <defs
     id="defs2">
	
	
	
	
	
	
	
	
	
	
	
	
	

		
	</defs>
  <sodipodi:namedview
     id="base"
     pagecolor="#ffffff"
     bordercolor="#666666"
     borderopacity="1.0"
     inkscape:pageopacity="0.0"
     inkscape:pageshadow="2"
     inkscape:zoom="3.9213115"
     inkscape:cx="114.375"
     inkscape:cy="7.6499812"
     inkscape:document-units="mm"
     inkscape:current-layer="layer1"
     showgrid="false"
     fit-margin-top="0"
     fit-margin-left="0"
     fit-margin-right="0"
     fit-margin-bottom="0"
     units="px"
     inkscape:window-width="1280"
     inkscape:window-height="744"
     inkscape:window-x="-4"
     inkscape:window-y="-4"
     inkscape:window-maximized="1" />
  <metadata
     id="metadata5">
    <rdf:RDF>
      <cc:Work
         rdf:about="">
        <dc:format>image/svg+xml</dc:format>
        <dc:type
           rdf:resource="http://purl.org/dc/dcmitype/StillImage" />
        <dc:title></dc:title>
      </cc:Work>
    </rdf:RDF>
  </metadata>
  <g
     inkscape:label="Layer 1"
     inkscape:groupmode="layer"
     id="layer1"
     transform="translate(-200.30376,-320.90511)">
    <g
       id="g107"
       transform="translate(0.26458371,-0.2645767)">
      <path
         inkscape:connector-curvature="0"
         d="m 202.80407,323.7761 -0.56885,-1.36261 -0.56886,1.36261 z m 0.2249,0.55562 h -1.60073 l -0.46302,1.07156 h -0.66146 l 1.71979,-3.88964 h 0.41011 c 0.3175,0.78079 1.71979,3.88964 1.71979,3.88964 h -0.66146 z"
         id="path10"
         style="fill:#333333;stroke-width:0.26458332" />
      <path
         inkscape:connector-curvature="0"
         d="m 247.29376,323.7761 -0.56833,-1.36261 -0.56885,1.36261 z m 0.2249,0.55562 h -1.60073 l -0.46302,1.07183 h -0.66146 l 1.71979,-3.88964 h 0.4101 c 0.3175,0.78078 1.71979,3.88964 1.71979,3.88964 h -0.66145 z"
         id="path12"
         style="fill:#333333;stroke-width:0.26458332" />
      <polygon
         transform="matrix(0.26458333,0,0,0.26458333,200.30376,321.43427)"
         points="42.5,15.001 42.5,0.3 50.6,0.3 50.6,2.351 44.7,2.351 44.7,5.902 50.45,5.902 50.45,8.001 44.7,8.001 44.7,12.902 50.6,12.902 50.6,15.001 "
         id="polygon14"
         style="fill:#333333" />
      <path
         inkscape:connector-curvature="0"
         d="m 216.23168,323.29958 h 0.1852 c 0.55563,0 0.83318,-0.2114 0.83318,-0.63447 0,-0.39687 -0.26459,-0.59531 -0.80698,-0.59531 h -0.21167 v 1.22978 z m 0.7276,0.43683 1.20385,1.65365 h -0.71437 l -1.11125,-1.5875 h -0.10583 v 1.5875 h -0.58209 v -3.88938 h 0.68792 c 0.51594,0 0.88662,0.0931 1.11125,0.29157 0.25135,0.2114 0.38365,0.50218 0.38365,0.84587 0,0.27861 -0.0794,0.51621 -0.23813,0.71464 -0.15875,0.21141 -0.37042,0.33073 -0.635,0.38365"
         id="path16"
         style="fill:#333333;stroke-width:0.26458332" />
      <rect
         x="219.94907"
         y="321.51364"
         width="0.58208334"
         height="3.8896396"
         id="rect18"
         style="fill:#333333;stroke-width:0.26458332" />
      <path
         inkscape:connector-curvature="0"
         d="m 225.37303,321.72558 v 0.70088 c -0.34396,-0.27755 -0.68792,-0.42334 -1.05833,-0.42334 -0.39688,0 -0.74084,0.14579 -1.00542,0.43604 -0.27781,0.29157 -0.4101,0.63526 -0.4101,1.04563 0,0.40984 0.13229,0.75459 0.4101,1.03188 0.27781,0.27728 0.60854,0.42333 1.01865,0.42333 0.21166,0 0.38364,-0.0392 0.52916,-0.10531 0.0794,-0.0397 0.15902,-0.0802 0.25136,-0.13229 0.0926,-0.0532 0.17198,-0.13229 0.27781,-0.21246 v 0.70115 c -0.33073,0.18547 -0.68792,0.27808 -1.05833,0.27808 -0.55563,0 -1.03161,-0.19844 -1.42849,-0.58235 -0.39687,-0.39688 -0.58208,-0.8599 -0.58208,-1.41552 0,-0.48948 0.15875,-0.93901 0.48948,-1.32292 0.39661,-0.47599 0.92577,-0.71411 1.56077,-0.71411 0.34396,2.6e-4 0.67469,0.0929 1.00542,0.29131"
         id="path20"
         style="fill:#333333;stroke-width:0.26458332" />
      <polygon
         transform="matrix(0.26458333,0,0,0.26458333,200.30376,321.43427)"
         points="154.35,15.001 154.35,0.3 162.45,0.3 162.45,2.351 156.55,2.351 156.55,5.902 162.25,5.902 162.25,8.001 156.55,8.001 156.55,12.902 162.45,12.902 162.45,15.001 "
         id="polygon22"
         style="fill:#333333" />
      <path
         inkscape:connector-curvature="0"
         d="m 251.79168,323.37922 h 1.60125 v 0.13229 c 0,0.29105 -0.0397,0.55563 -0.10583,0.78026 -0.0661,0.21193 -0.18521,0.39687 -0.34396,0.58182 -0.35771,0.41037 -0.82073,0.6088 -1.37583,0.6088 -0.5424,0 -1.00542,-0.19843 -1.40229,-0.59531 -0.38365,-0.39687 -0.58209,-0.87339 -0.58209,-1.41552 0,-0.56885 0.19844,-1.04537 0.59532,-1.42875 0.39687,-0.39687 0.87312,-0.59531 1.44198,-0.59531 0.30374,0 0.58208,0.0661 0.84666,0.18494 0.25083,0.11933 0.50218,0.33073 0.74084,0.60881 l -0.42387,0.39687 c -0.31697,-0.42333 -0.70061,-0.63447 -1.16363,-0.63447 -0.41011,0 -0.7546,0.14526 -1.03188,0.42334 -0.27755,0.27754 -0.42333,0.6223 -0.42333,1.04484 0,0.43656 0.15875,0.79375 0.46302,1.07182 0.29104,0.26459 0.60854,0.38338 0.93927,0.38338 0.29104,0 0.5424,-0.0926 0.78052,-0.29104 0.2249,-0.19843 0.35719,-0.43656 0.38365,-0.70114 h -0.96626 v -0.55563 z"
         id="path24"
         style="fill:#333333;stroke-width:0.26458332" />
      <polygon
         transform="matrix(0.26458333,0,0,0.26458333,200.30376,321.43427)"
         points="213.9,15.001 207.4,15.001 207.4,0.3 209.6,0.3 209.6,12.902 213.9,12.902 "
         id="polygon26"
         style="fill:#333333" />
      <polygon
         transform="matrix(0.26458333,0,0,0.26458333,200.30376,321.43427)"
         points="222.85,2.351 228.75,2.351 228.75,0.3 220.65,0.3 220.65,15.001 228.75,15.001 228.75,12.902 222.85,12.902 222.85,8.001 228.55,8.001 228.55,5.902 222.85,5.902 "
         id="polygon28"
         style="fill:#333333" />
      <path
         inkscape:connector-curvature="0"
         d="m 229.3947,323.7761 -0.56886,-1.36261 -0.56859,1.36261 z m 0.22489,0.55562 h -1.60073 l -0.46302,1.07156 h -0.66146 l 1.7198,-3.88964 h 0.4101 c 0.3175,0.78079 1.71979,3.88964 1.71979,3.88964 h -0.66146 z"
         id="path30"
         style="fill:#333333;stroke-width:0.26458332" />
      <polygon
         transform="matrix(0.26458333,0,0,0.26458333,200.30376,321.43427)"
         points="27.8,10.601 23.2,0.201 22.55,0.201 19.65,15.001 21.95,15.001 23.5,6.101 27.45,15.001 28.05,15.001 32.1,6.101 33.5,15.001 35.8,15.001 33.2,0.201 32.55,0.201 "
         id="polygon32"
         style="fill:#333333" />
      <polygon
         transform="matrix(0.26458333,0,0,0.26458333,200.30376,321.43427)"
         id="polygon34"
         points="132,10.501 121.65,0.201 120.8,0.201 120.8,15.001 123,15.001 123,4.652 133.35,15.001 134.2,15.001 134.2,0.3 132,0.3 "
         style="fill:#333333" />
    </g>
  </g>
</svg>
