<?xml version="1.0" encoding="UTF-8" standalone="no"?>
<svg
   class="w-full h-auto"
   viewBox="0 0 171 24.103827"
   fill="currentColor"
   width="1223"
   height="172.74409"
   version="1.1"
   id="svg9"
   sodipodi:docname="svgexport-15.svg"
   inkscape:version="1.4.3 (0d15f75, 2025-12-25)"
   xmlns:inkscape="http://www.inkscape.org/namespaces/inkscape"
   xmlns:sodipodi="http://sodipodi.sourceforge.net/DTD/sodipodi-0.dtd"
   xmlns="http://www.w3.org/2000/svg"
   xmlns:svg="http://www.w3.org/2000/svg">
  <defs
     id="defs9" />
  <sodipodi:namedview
     id="namedview9"
     pagecolor="#ffffff"
     bordercolor="#000000"
     borderopacity="0.25"
     inkscape:showpageshadow="2"
     inkscape:pageopacity="0.0"
     inkscape:pagecheckerboard="0"
     inkscape:deskcolor="#d1d1d1"
     inkscape:zoom="1.9198473"
     inkscape:cx="594.83897"
     inkscape:cy="104.95626"
     inkscape:window-width="1366"
     inkscape:window-height="705"
     inkscape:window-x="-8"
     inkscape:window-y="-8"
     inkscape:window-maximized="1"
     inkscape:current-layer="svg9" />
  <path
     d="M 1.83182,23.925664 V 4.487704 L 0,3.334864 1.37986e-7,0.17811194 H 10.6868 c 4.1375,1e-6 7.0561,2.30568206 7.0561,6.37717206 0,2.2043 -0.8487,4.00308 -2.7135,5.15598 2.1029,1.2542 3.053,2.9846 3.053,5.427 0,4.444 -3.2228,6.7851 -7.464,6.7851 H 1.83182 Z M 6.81804,9.778044 h 3.32416 c 1.6951,0 2.6121,-1.25421 2.6121,-2.47542 0,-1.35559 -0.9831,-2.40942 -2.5438,-2.40942 H 6.81804 Z m 6.27576,6.88642 c 0,-1.6291 -1.2212,-2.5438 -2.7819,-2.5438 H 6.81804 v 5.0546 h 3.56226 c 1.5937,0 2.7135,-0.9831 2.7135,-2.5108 z"
     fill="#FFFFFF"
     style="opacity:1;fill:#000000"
     data-svg-origin="0 0.20274800062179565"
     id="path1" />
  <path
     d="m 20.0462,15.139064 v -6.17437 c 0,-5.2927 3.2558,-8.98933028 8.2774,-8.98933006 5.0216,2.1e-7 8.2443,3.83337006 8.2443,8.98933006 v 6.17437 c 0,5.3588 -3.2558,8.9894 -8.2443,8.9894 -4.9886,0 -8.2774,-3.6967 -8.2774,-8.9894 z m 11.5685,-0.2027 v -5.76656 c 0,-2.44242 -0.8487,-4.47699 -3.2911,-4.47699 -2.4424,0 -3.3242,1.96855 -3.3242,4.47699 v 5.76656 c 0,2.5438 0.8488,4.477 3.3242,4.477 2.4754,0 3.2911,-2.0016 3.2911,-4.477 z"
     fill="#FFFFFF"
     style="opacity:1;fill:#000000"
     data-svg-origin="20.046199798583984 0"
     id="path2" />
  <path
     d="M 39.5856,23.925664 V 4.487714 L 37.7538,3.334874 V 0.17811394 h 9.7366 c 5.1914,0 8.2774,3.79801006 8.2774,8.98933006 v 5.86792 c 0,5.2243 -3.1214,8.888 -8.2774,8.888 h -7.9048 z m 11.229,-9.1944 v -5.35871 c 0,-2.51079 -0.8134,-4.47699 -3.3242,-4.47699 h -2.8832 v 14.282 h 2.8832 c 2.5108,0 3.3242,-1.9332 3.3242,-4.444"
     fill="#FFFFFF"
     style="opacity:1;fill:#000000"
     data-svg-origin="37.75379943847656 0.20274999737739563"
     id="path3" />
  <path
     d="m 57.701,19.311964 h 2.5768 c 1.7634,0 2.5438,-1.0845 1.9685,-2.7819 l -5.6982,-16.35195006 5.2244,1e-6 3.3925,9.80264906 3.4915,-9.80264906 h 5.0216 L 66.7917,19.649064 c -1.1882,3.1898 -2.0016,4.2743 -5.2927,4.2743 h -3.798 v -4.6138 z"
     fill="#FFFFFF"
     style="opacity:1;fill:#000000"
     data-svg-origin="56.548099517822266 0.20274999737739563"
     id="path4" />
  <path
     d="m 83.99,23.925664 -1.1198,-3.3241 h -7.3273 l -1.0868,3.3241 h -5.123 l 8.3811,-23.74754906 6.1414,1e-6 V 3.400884 l -1.4923,0.95009 6.8864,19.57239 h -5.2573 z m -4.8518,-14.35036 -2.2043,6.88636 h 4.5123 z"
     fill="#FFFFFF"
     style="opacity:1;fill:#000000"
     data-svg-origin="69.33309936523438 0.20275099575519562"
     id="path5" />
  <path
     d="m 100,0.17811594 c 4.343,0 7.056,3.05302806 7.056,7.25888806 0,3.46086 -1.933,5.66516 -3.833,6.61526 l 5.394,9.8711 h -5.564 l -4.9531,-9.1591 H 96.03 v 9.1591 H 91.0768 V 4.487714 L 89.245,3.334874 V 0.17811594 Z m 2.07,7.29424806 c 0,-1.32258 -0.78,-2.57915 -2.5438,-2.57915 h -3.4939 v 5.32565 h 3.4939 c 1.6618,0 2.5438,-1.3579 2.5438,-2.74885"
     fill="#FFFFFF"
     style="opacity:1;fill:#000000"
     data-svg-origin="89.24500274658203 0.2027519941329956"
     id="path6" />
  <path
     d="m 126.122,10.763464 -3.935,8.3104 h -2.442 l -3.935,-8.3104 v 13.1622 h -5.022 V 4.487714 l -1.832,-1.15284 V 0.17811694 h 6.854 l 5.156,10.85654706 5.156,-10.85654706 5.019,1e-6 V 23.925664 h -5.019 z"
     fill="#FFFFFF"
     style="opacity:1;fill:#000000"
     data-svg-origin="108.95600128173828 0.2027529925107956"
     id="path7" />
  <path
     d="m 133.923,15.139164 v -6.17447 c 0,-5.29269 3.256,-8.98932531 8.277,-8.98932509 5.022,2.2e-7 8.245,3.83337509 8.245,8.98932509 v 6.17447 c 0,5.3587 -3.256,8.9893 -8.245,8.9893 -4.988,0 -8.277,-3.6967 -8.277,-8.9893 z m 11.568,-0.2028 v -5.76656 c 0,-2.44242 -0.848,-4.47698 -3.291,-4.47698 -2.442,0 -3.324,1.96855 -3.324,4.47698 v 5.76656 c 0,2.5438 0.849,4.477 3.324,4.477 2.476,0 3.291,-2.0016 3.291,-4.477 z"
     fill="#FFFFFF"
     style="opacity:1;fill:#000000"
     data-svg-origin="133.92300415039062 0.000004977710432285676"
     id="path8" />
  <path
     d="m 162.383,0.17811894 c 4.343,0 7.056,3.05302506 7.056,7.26124506 0,3.4609 -1.933,5.6652 -3.833,6.6153 l 5.394,9.871 h -5.564 l -4.953,-9.159 h -2.07 v 9.159 H 153.46 V 4.487714 l -1.832,-1.15284 V 0.17811794 Z m 2.07,7.29425506 c 0,-1.32259 -0.78,-2.57916 -2.544,-2.57916 h -3.494 v 5.32565 h 3.494 c 1.662,10e-5 2.544,-1.3579 2.544,-2.74885"
     fill="#FFFFFF"
     style="opacity:1;fill:#000000"
     data-svg-origin="151.6280059814453 0.20275399088859558"
     id="path9" />
</svg>
